# xmcd
#
# Track frame offsets: 
#        150
#        12191
#        27197
#        36207
#        58920
#        81360
#        99919
#        105899
#        128850
#        152807
#        163811
#        189696
#        217121
#        229098
#
# Disc length: 3144 seconds
#
# Revision: 0
# Processed by: cddbd v1.5.2PL0 Copyright (c) Steve Scherf et al.
# Submitted via: ExactAudioCopy v0.95a4
#
DISCID=b60c460e
DTITLE=Reverse Dotty - Licorice Whips
DYEAR=2009
DGENRE=Post-Pop
TTITLE0=Hay
TTITLE1=Master Jr
TTITLE2=Stray Nay
TTITLE3=Turn Up and Play
TTITLE4=Amazonian Hostel
TTITLE5=Fuck Juice no9
TTITLE6=Corks
TTITLE7=Wildebeest
TTITLE8=The Snake Man
TTITLE9=Cheato
TTITLE10=OMD
TTITLE11=Underwolf
TTITLE12=Dot Blue
TTITLE13=Lost
EXTD=
EXTT0=
EXTT1=
EXTT2=
EXTT3=
EXTT4=
EXTT5=
EXTT6=
EXTT7=
EXTT8=
EXTT9=
EXTT10=
EXTT11=
EXTT12=
EXTT13=
PLAYORDER=
